<?xml version="1.0" encoding="UTF-8"?><svg id="Layer_2" xmlns="http://www.w3.org/2000/svg" viewBox="0 0 117.21 78.14"><g id="Layer_1-2"><path fill="#ffffff" d="m111.63,11.16H5.58c-3.08,0-5.58-2.5-5.58-5.58S2.5,0,5.58,0h106.05c3.09,0,5.58,2.5,5.58,5.58s-2.5,5.58-5.58,5.58Z"/><path fill="#ffffff" d="m111.63,44.65H5.58c-3.08,0-5.58-2.5-5.58-5.58s2.5-5.58,5.58-5.58h106.05c3.09,0,5.58,2.5,5.58,5.58s-2.5,5.58-5.58,5.58Z"/><path fill="#ffffff" d="m55.82,78.14H5.58c-3.08,0-5.58-2.5-5.58-5.58s2.5-5.58,5.58-5.58h50.23c3.08,0,5.58,2.5,5.58,5.58s-2.5,5.58-5.58,5.58Z"/><path fill="#ffffff" d="m111.63,78.14h-33.49c-3.09,0-5.58-2.5-5.58-5.58s2.5-5.58,5.58-5.58h33.49c3.09,0,5.58,2.5,5.58,5.58s-2.5,5.58-5.58,5.58Z"/></g></svg>