<?xml version="1.0" encoding="UTF-8"?>
<svg id="a" data-name="Layer 1" xmlns="http://www.w3.org/2000/svg" xmlns:xlink="http://www.w3.org/1999/xlink" viewBox="0 0 194.27 50.9">
  <defs>
    <style>
      .d {
        fill: url(#c);
      }

      .e {
        fill: url(#b);
      }

      .f {
        fill: #fff;
      }
    </style>
    <linearGradient id="b" x1="-282.16" y1="802.29" x2="-230.58" y2="853.88" gradientTransform="translate(287 847.65) scale(1 -1)" gradientUnits="userSpaceOnUse">
      <stop offset="0" stop-color="#ead563"/>
      <stop offset="1" stop-color="#cda349"/>
    </linearGradient>
    <linearGradient id="c" x1="-258.53" y1="778.65" x2="-206.94" y2="830.24" xlink:href="#b"/>
  </defs>
  <path class="f" d="m83.86,19.54h2.42v7.43h9.28v-7.43h2.43v17.92h-2.43v-8.22h-9.28v8.22h-2.42v-17.92Z"/>
  <path class="f" d="m111.34,31.45c0-.84.16-1.68.49-2.45.32-.75.78-1.42,1.36-2,.58-.58,1.26-1.04,2.02-1.35,1.18-.49,2.47-.63,3.72-.39,1.25.24,2.4.85,3.31,1.74.57.57,1.03,1.25,1.35,2,.33.77.5,1.61.49,2.45,0,.83-.16,1.65-.47,2.41s-.78,1.46-1.37,2.04c-.92.88-2.07,1.48-3.32,1.72-1.25.24-2.54.11-3.72-.37-1.52-.63-2.73-1.83-3.38-3.34-.33-.78-.5-1.61-.49-2.46Zm2.42,0c0,.57.09,1.14.28,1.68.17.49.43.94.78,1.32.35.37.77.66,1.24.86.52.22,1.08.32,1.64.31.56.01,1.12-.09,1.64-.31.47-.2.89-.49,1.24-.86.35-.38.61-.83.78-1.32.37-1.09.37-2.27,0-3.36-.17-.49-.44-.93-.78-1.32-.35-.37-.78-.66-1.24-.86-.52-.21-1.08-.32-1.64-.31-.56,0-1.12.1-1.64.31-.47.2-.89.49-1.24.86-.35.38-.61.83-.78,1.32-.19.54-.29,1.11-.28,1.68Z"/>
  <path class="f" d="m143.29,27.42h-3.26v6.43c0,.31.07.61.19.89.11.25.28.47.5.63.3.18.65.26,1,.23.28,0,.56-.02.83-.07.28-.05.54-.14.79-.28v2.07c-.33.17-.68.28-1.05.32-.33.05-.66.08-1,.09-.7.03-1.4-.09-2.04-.36-.44-.21-.8-.54-1.06-.95-.23-.4-.37-.84-.4-1.3-.04-.47-.06-.95-.06-1.42v-6.25h-2.63v-1.97h2.63v-3.36h2.28v3.36h3.29v1.94Z"/>
  <path class="f" d="m157.83,32.28c0,.49.11.98.34,1.42.22.42.53.8.9,1.1.38.31.82.55,1.29.71.49.17,1,.26,1.51.26.65.02,1.29-.16,1.85-.5.54-.35,1.02-.79,1.42-1.3l1.72,1.32c-.62.81-1.43,1.45-2.35,1.88-.93.43-1.94.62-2.96.58-.88.01-1.75-.15-2.56-.48-.74-.3-1.4-.75-1.95-1.33-.54-.58-.96-1.26-1.23-2-.29-.8-.43-1.64-.43-2.49,0-.85.15-1.7.47-2.5.29-.74.73-1.42,1.29-1.99.55-.57,1.22-1.02,1.96-1.33.79-.33,1.63-.49,2.48-.48.93-.03,1.85.16,2.69.56.7.34,1.31.82,1.81,1.42.47.6.82,1.29,1.02,2.02.21.74.32,1.52.31,2.29v.81l-9.59.03Zm7.18-1.82c0-.48-.09-.96-.24-1.42-.13-.41-.35-.78-.64-1.09-.3-.31-.67-.56-1.08-.71-.48-.19-.99-.28-1.5-.27-.53,0-1.05.1-1.53.32-.44.19-.84.47-1.18.82-.3.33-.54.71-.71,1.13-.17.38-.26.8-.27,1.22h7.15Z"/>
  <path class="f" d="m180.26,18.32h2.27v19.14h-2.27v-19.14Z"/>
  <path class="f" d="m194.26,22.83c0,.42-.11.84-.34,1.2-.23.36-.56.64-.95.81-.39.17-.82.22-1.24.14-.42-.08-.8-.28-1.1-.57-.3-.3-.51-.68-.6-1.09-.09-.42-.05-.85.11-1.24.16-.39.43-.73.79-.97.35-.24.77-.36,1.19-.36.28,0,.55.04.81.15.26.1.49.25.69.45.2.19.36.43.47.68.11.26.16.53.16.81Zm-3.75,0c0,.22.03.44.11.64.08.2.2.39.35.54.15.16.33.28.54.36.2.08.42.13.64.12.21,0,.42-.05.62-.13.2-.08.37-.21.52-.36s.26-.34.34-.54c.08-.2.11-.41.1-.63,0-.43-.17-.83-.47-1.14-.3-.3-.71-.47-1.14-.47s-.84.17-1.14.47c-.3.3-.47.71-.47,1.14h0Zm1.28,1.09h-.48v-2.1c.26-.05.53-.07.8-.06.25-.02.49.03.71.15.07.06.12.13.15.21.04.08.05.17.05.25-.01.12-.06.23-.14.31s-.18.15-.3.17c.1.04.19.11.26.2.07.09.11.2.12.31.02.18.07.36.15.52h-.52c-.08-.16-.14-.33-.17-.5,0-.23-.16-.33-.43-.33h-.24v.88Zm0-1.18h.23c.27,0,.48-.09.48-.31s-.14-.32-.44-.32c-.09-.01-.18-.01-.27,0v.63Z"/>
  <path class="f" d="m83.86,44.73h1.73c.24,0,.48.02.71.06.22.03.43.11.62.23.19.12.34.29.46.48.12.26.18.54.17.82,0,.29-.09.57-.27.8-.21.24-.5.4-.81.45.19.01.38.06.55.14.16.07.31.18.43.31.12.13.21.28.28.45.06.19.1.38.09.58.01.3-.06.59-.2.85-.13.21-.3.38-.5.51-.2.12-.42.21-.65.26-.22.04-.44.06-.66.06h-1.92l-.02-5.99Zm.56,2.6h1.17c.24,0,.48-.03.71-.11.16-.06.3-.14.42-.26.09-.09.17-.2.21-.33.03-.1.05-.21.05-.32,0-.18-.03-.36-.11-.53-.06-.13-.16-.24-.28-.33-.12-.09-.26-.15-.41-.18-.17-.04-.34-.05-.5-.05h-1.24v2.09Zm0,2.91h1.28c.27,0,.54-.03.8-.12.18-.06.33-.16.46-.3.1-.11.17-.24.22-.38.03-.12.05-.24.05-.36,0-.2-.04-.39-.13-.57-.08-.15-.19-.28-.33-.38-.14-.1-.3-.17-.46-.22-.17-.04-.35-.06-.53-.06h-1.37v2.4Z"/>
  <path class="f" d="m93.16,49.65v1.1h-.51v-.42c0-.09,0-.18,0-.26-.11.23-.29.42-.5.55-.25.16-.54.24-.84.23-.25,0-.49-.05-.71-.15-.18-.08-.34-.21-.46-.38-.11-.16-.19-.35-.23-.54-.04-.21-.06-.42-.06-.63v-2.34h.51v2.31c0,.16.01.31.04.46.02.14.08.28.15.41.07.12.17.22.29.28.15.08.33.11.5.11.18,0,.36-.03.53-.1.17-.06.31-.16.43-.29.13-.15.23-.32.29-.5.08-.23.11-.47.11-.71v-1.96h.5l-.05,2.82Z"/>
  <path class="f" d="m95.33,49.75c.1.21.27.38.48.48.2.11.43.16.66.16.11,0,.22-.02.33-.05.1-.03.2-.08.28-.14.08-.06.16-.14.21-.23.05-.09.08-.19.08-.3,0-.08,0-.16-.04-.23-.03-.07-.08-.14-.14-.18-.13-.1-.27-.17-.43-.21-.18-.05-.37-.1-.56-.13-.19-.03-.38-.09-.56-.17-.16-.07-.31-.18-.43-.32-.12-.17-.18-.37-.17-.58,0-.18.03-.35.11-.5.08-.14.18-.26.31-.35.13-.09.27-.16.43-.21.16-.05.32-.07.48-.07.29,0,.58.05.84.18.24.12.43.32.55.56l-.46.27c-.09-.16-.21-.31-.36-.41-.13-.07-.27-.12-.42-.14-.15-.02-.29,0-.44.04-.09.03-.18.07-.26.12-.08.05-.15.12-.2.2-.06.08-.09.17-.09.27,0,.08,0,.15.04.22.03.07.08.13.14.17.13.09.27.16.43.2.18.05.37.09.56.12.19.03.38.09.56.17.17.07.31.18.43.33.13.18.19.4.18.62,0,.18-.04.37-.11.53-.08.15-.19.28-.32.38-.14.1-.29.18-.46.23-.17.05-.35.08-.53.08-.32,0-.64-.06-.93-.2-.28-.12-.5-.34-.65-.6l.45-.31Z"/>
  <path class="f" d="m99.67,45.28c0-.1.04-.2.11-.28.07-.07.17-.11.27-.11.05,0,.1,0,.15.02.05.02.09.05.13.08.04.04.06.08.08.13.02.05.03.1.02.15,0,.1-.04.2-.11.27-.07.07-.17.11-.28.11-.05,0-.1,0-.15-.02-.05-.02-.09-.05-.12-.08s-.06-.08-.08-.12c-.02-.05-.03-.1-.02-.15Zm.13,1.55h.5v3.92h-.5v-3.92Z"/>
  <path class="f" d="m102.51,47.93v-1.11h.51v.69c.11-.23.29-.42.51-.55.25-.16.54-.24.83-.23.24,0,.49.04.71.14.18.09.33.22.45.38.11.16.19.35.23.54.04.21.06.42.06.63v2.33h-.51v-2.31c0-.16-.01-.31-.04-.46-.03-.14-.08-.28-.14-.41-.07-.12-.18-.22-.3-.28-.15-.08-.33-.11-.5-.11-.18,0-.36.03-.53.1-.17.06-.31.17-.43.3-.13.15-.23.32-.28.5-.08.23-.11.47-.11.71v1.96h-.51l.05-2.82Z"/>
  <path class="f" d="m111.46,50.01c-.17.28-.42.51-.71.65-.3.14-.63.2-.97.2-.28,0-.55-.05-.81-.16-.24-.09-.46-.24-.63-.43-.17-.19-.31-.41-.41-.65-.09-.27-.14-.55-.13-.84,0-.28.04-.56.14-.82.09-.24.23-.46.4-.65.18-.18.39-.33.63-.43.25-.11.52-.16.79-.16.27,0,.54.05.79.16.22.1.42.24.58.42.15.17.27.37.35.59.08.21.12.44.12.67v.36h-3.3c0,.14.03.28.06.41.05.18.12.34.23.49.12.17.28.3.45.41.22.12.46.18.71.17.26,0,.52-.07.75-.18.23-.12.42-.29.56-.51l.38.31Zm-.39-1.55c0-.17-.03-.34-.11-.5-.07-.15-.17-.28-.29-.4-.12-.12-.27-.22-.43-.28-.17-.07-.35-.11-.53-.11-.25-.01-.49.05-.71.17-.17.1-.32.23-.44.39-.1.13-.18.28-.23.43-.03.09-.06.19-.07.28h2.81Z"/>
  <path class="f" d="m113.5,49.75c.1.21.27.38.48.48.2.11.43.16.66.16.11,0,.22-.02.33-.05.1-.03.2-.08.29-.14.08-.06.15-.14.21-.23.06-.09.09-.19.08-.3,0-.08,0-.16-.04-.23s-.08-.14-.14-.18c-.13-.1-.27-.17-.43-.21-.18-.05-.37-.1-.56-.13-.19-.03-.38-.09-.56-.17-.17-.07-.31-.18-.43-.32-.13-.16-.19-.37-.18-.58,0-.18.04-.35.12-.5.08-.14.18-.26.31-.35.13-.09.27-.16.43-.21.16-.05.32-.07.48-.07.29,0,.58.05.84.18.24.12.43.32.55.56l-.46.27c-.08-.17-.2-.31-.36-.41-.17-.1-.37-.15-.57-.14-.1,0-.19.02-.28.04-.1.03-.19.07-.27.12-.08.05-.15.12-.2.2-.05.08-.08.17-.08.27,0,.08,0,.15.04.22.03.07.08.13.14.17.13.09.27.16.43.2.18.05.37.09.56.12.19.03.38.09.56.17.17.07.31.18.43.33.12.18.19.4.17.62,0,.18-.03.37-.11.53-.07.15-.18.28-.31.38-.14.1-.29.18-.45.23-.17.05-.35.08-.53.08-.32,0-.64-.06-.93-.2-.28-.12-.5-.34-.65-.6l.45-.31Z"/>
  <path class="f" d="m117.88,49.75c.1.21.27.38.47.48.21.11.44.16.67.16.11,0,.22-.02.32-.05.1-.03.2-.08.29-.14.08-.06.15-.14.21-.23.06-.09.08-.19.08-.3,0-.08,0-.15-.04-.23-.03-.07-.07-.14-.13-.19-.13-.09-.27-.17-.43-.21-.18-.05-.37-.1-.56-.13-.19-.03-.38-.09-.56-.17-.17-.08-.31-.18-.43-.32-.12-.17-.18-.37-.17-.58,0-.18.03-.35.12-.5.07-.14.18-.26.31-.35.13-.1.28-.17.43-.21.16-.05.32-.07.48-.07.29,0,.57.05.83.18.24.12.43.32.56.56l-.46.27c-.09-.16-.21-.31-.36-.41-.13-.07-.27-.12-.41-.13-.14-.02-.29,0-.43.04-.1.03-.19.07-.27.12-.08.05-.15.12-.2.2-.06.08-.08.17-.08.27,0,.07,0,.15.04.22.03.07.08.13.13.17.13.09.28.16.43.2.19.05.37.09.56.12.19.03.38.09.56.17.17.07.32.19.43.33.12.18.18.4.17.62,0,.18-.03.37-.11.53-.08.15-.19.27-.31.38-.14.1-.29.18-.46.23-.17.05-.35.08-.53.08-.32,0-.64-.06-.93-.2-.28-.12-.51-.34-.65-.6l.46-.31Z"/>
  <path class="f" d="m128.69,49l.86-1.56h.58l-1.09,1.92,1.37,1.42h-.75l-.9-.97c-.22.31-.49.57-.8.79-.32.2-.69.3-1.07.29-.24,0-.48-.04-.71-.12-.21-.08-.41-.2-.58-.36-.17-.16-.3-.35-.39-.55-.1-.22-.14-.47-.14-.71,0-.21.04-.42.12-.61.08-.17.18-.33.31-.47.13-.14.28-.26.44-.37.16-.11.33-.22.51-.33l-.26-.32c-.08-.11-.16-.22-.23-.34-.06-.12-.12-.24-.16-.37-.05-.13-.07-.26-.07-.4,0-.2.04-.39.12-.58.08-.17.19-.31.33-.43.14-.12.31-.21.48-.27.19-.06.38-.09.58-.09.17,0,.34.03.5.09.16.06.31.15.44.26.13.11.23.25.3.41.08.16.12.34.11.52,0,.19-.04.38-.11.56-.08.16-.18.3-.31.43-.13.13-.28.24-.43.33-.16.1-.32.19-.49.28l1.46,1.55Zm-1.94-1.27c-.14.08-.27.17-.4.26-.13.09-.25.19-.36.3-.11.11-.2.24-.27.38-.07.15-.1.31-.1.47,0,.18.03.36.11.52.07.15.17.29.29.4.13.11.27.2.43.26.17.06.35.09.53.09.15,0,.31-.02.45-.08.14-.05.27-.11.38-.2.12-.09.23-.19.33-.3.1-.11.19-.23.28-.35l-1.66-1.73Zm.42-2.64c-.24,0-.47.07-.65.23-.09.08-.16.17-.2.28-.04.11-.07.22-.06.34,0,.11.02.21.06.31.04.11.1.22.16.31.06.1.13.2.21.29l.21.25.37-.21c.13-.07.25-.16.36-.26.11-.09.2-.2.27-.33.07-.13.11-.27.11-.42,0-.11-.02-.22-.06-.32-.04-.1-.1-.19-.18-.27-.17-.15-.38-.23-.61-.22Z"/>
  <path class="f" d="m135.1,44.73h1.73c.22,0,.44.03.66.08.22.04.44.13.63.25.19.12.36.28.47.48.11.23.17.49.17.74s-.06.51-.17.74c-.09.19-.23.36-.4.49-.18.13-.37.23-.58.28-.23.06-.47.09-.71.09h-1.3v2.84h-.55l.06-6.01Zm.55,2.65h1.28c.16,0,.31-.02.46-.06.15-.03.29-.09.41-.18.12-.08.22-.2.29-.33.08-.15.12-.32.11-.5,0-.17-.04-.34-.11-.5-.08-.13-.18-.24-.3-.33-.13-.09-.27-.15-.42-.19-.16-.04-.32-.06-.48-.06h-1.24v2.14Z"/>
  <path class="f" d="m140.68,44.33h.51v6.4h-.51v-6.4Z"/>
  <path class="f" d="m146.84,50.01c-.17.28-.42.5-.71.65-.3.14-.63.2-.96.2-.28,0-.56-.05-.82-.16-.24-.1-.45-.24-.63-.43-.17-.19-.31-.41-.4-.65-.1-.27-.14-.55-.14-.84,0-.28.05-.56.14-.82.09-.24.23-.46.41-.65.17-.19.38-.33.62-.43.51-.21,1.08-.21,1.58,0,.22.1.42.24.58.42.15.17.28.37.36.59.08.21.11.44.11.67v.36h-3.29c0,.14.03.28.06.41.05.18.12.34.23.49.12.16.28.3.46.41.22.12.46.18.71.17.26,0,.52-.07.75-.18.23-.12.42-.29.56-.51l.38.31Zm-.39-1.55c0-.17-.04-.34-.11-.5-.07-.15-.17-.28-.29-.4-.12-.12-.27-.22-.43-.28-.17-.07-.35-.11-.53-.11-.25-.01-.49.05-.71.17-.32.18-.55.48-.67.82-.03.09-.05.19-.06.28h2.81Z"/>
  <path class="f" d="m151.93,49.11v1.31c0,.11.02.22.04.33h-.48c-.03-.21-.05-.42-.05-.63-.13.23-.32.43-.55.56-.26.12-.54.19-.82.18-.17,0-.34-.02-.5-.06-.16-.04-.31-.11-.44-.21-.13-.1-.24-.22-.32-.36-.08-.16-.13-.35-.12-.53-.01-.26.07-.51.23-.71.15-.18.35-.31.57-.4.23-.09.47-.14.71-.17h1.26v-.28c.01-.14-.01-.27-.07-.4-.06-.12-.14-.23-.25-.32-.23-.16-.51-.24-.79-.23-.44,0-.87.15-1.19.45l-.3-.35c.2-.19.44-.33.71-.41.26-.09.52-.14.8-.14.41-.02.81.1,1.14.33.15.13.27.3.34.49.07.19.1.39.09.59v.96Zm-1.02-.33c-.21,0-.41.01-.62.04-.19.03-.37.07-.55.14-.15.06-.28.16-.38.28-.1.12-.15.27-.15.42,0,.11.03.22.09.32.05.09.12.17.21.23.09.06.18.11.29.14.1.03.21.04.32.04.23.01.46-.03.67-.12.16-.07.31-.17.42-.31.11-.13.18-.27.22-.43.04-.16.06-.33.06-.49v-.26h-.56Z"/>
  <path class="f" d="m154.06,49.75c.1.21.27.38.48.48.2.11.43.16.66.16.11,0,.22-.02.32-.05.1-.03.2-.08.29-.14.08-.06.15-.14.21-.23.06-.09.09-.19.09-.3,0-.08,0-.16-.04-.23-.03-.07-.08-.13-.14-.18-.13-.1-.27-.17-.43-.21-.18-.05-.37-.1-.56-.13-.19-.03-.38-.09-.56-.17-.16-.07-.31-.18-.43-.32-.13-.16-.19-.37-.18-.58,0-.18.04-.35.12-.5.08-.14.18-.26.31-.35.13-.09.27-.16.43-.21.16-.05.32-.07.48-.07.29,0,.58.05.84.18.24.12.43.32.55.56l-.46.27c-.08-.17-.21-.31-.36-.41-.17-.1-.36-.15-.56-.14-.1,0-.19.02-.28.04-.1.03-.19.07-.27.12-.08.05-.15.12-.2.2-.05.08-.08.17-.08.27,0,.07,0,.15.04.22.03.07.07.13.13.17.13.09.28.16.43.2.18.05.37.09.56.12.19.03.38.09.56.17.17.07.32.19.43.33.12.18.19.4.17.62,0,.18-.03.37-.11.53-.08.15-.18.28-.31.38-.14.1-.29.18-.46.23-.17.05-.35.08-.53.08-.32,0-.64-.06-.93-.2-.28-.12-.51-.34-.65-.6l.45-.31Z"/>
  <path class="f" d="m161.77,49.65v1.1h-.5v-.42c.01-.09.01-.18,0-.26-.11.23-.29.42-.51.55-.25.16-.54.24-.83.23-.26.01-.52-.04-.75-.15-.18-.08-.34-.21-.46-.38-.11-.16-.19-.35-.22-.54-.04-.21-.07-.42-.06-.63v-2.34h.51v2.31c0,.16.01.31.04.46.02.14.08.28.15.41.07.12.18.22.3.28.15.08.33.11.5.11.18,0,.36-.03.53-.1.16-.06.31-.16.43-.29.13-.15.23-.32.29-.5.08-.23.11-.47.11-.71v-1.96h.51l-.02,2.82Z"/>
  <path class="f" d="m163.9,47.93v-1.11h.51v.43c-.01.09-.01.18,0,.26.12-.22.29-.42.5-.57.21-.14.46-.22.71-.22h.3l-.06.5c-.07,0-.13,0-.2,0-.2,0-.39.03-.57.11-.16.06-.29.16-.4.29-.11.13-.19.27-.24.43-.05.18-.08.36-.08.54v2.13h-.48v-2.79Z"/>
  <path class="f" d="m170.84,50.01c-.17.28-.42.5-.71.65-.3.14-.63.2-.96.2-.28,0-.56-.05-.82-.16-.24-.09-.45-.24-.63-.43-.18-.19-.32-.41-.4-.65-.1-.27-.14-.55-.14-.84,0-.28.05-.56.14-.82.09-.24.23-.46.41-.65.18-.18.39-.33.62-.43.51-.21,1.08-.21,1.59,0,.21.1.41.24.57.41.16.17.28.38.36.6.08.21.11.44.11.67v.36h-3.29c0,.14.03.28.06.41.05.18.12.34.23.49.12.17.28.3.46.41.22.12.46.18.71.17.26,0,.52-.06.75-.18.23-.11.43-.29.56-.51l.37.31Zm-.39-1.55c0-.17-.04-.34-.11-.5-.07-.15-.17-.28-.29-.4-.12-.12-.27-.22-.43-.28-.19-.08-.41-.12-.62-.11-.21.01-.42.07-.6.17-.17.1-.32.23-.43.39-.1.13-.18.28-.24.43-.03.09-.05.19-.06.28h2.79Z"/>
  <path class="e" d="m56.02,0c-1.1,1.93-2.13,3.87-3.24,5.82-6.32,11.6-12.55,23.58-18.42,35.41l-1.71,3.55c-2.6-5.45-5.22-10.9-7.86-16.35,2.84-6.1,5.56-12.25,8.16-18.44l-.29-.15c-3.15,5.32-6.14,10.72-9.06,16.15-1.49-3.05-3-6.1-4.51-9.15l-.3.14c1.34,3.46,2.72,6.89,4.1,10.33-.19.35-.38.71-.57,1.05-2.89,5.44-5.74,10.9-8.44,16.42C9.43,35.43,4.9,26.12.3,16.84l-.3.14c2.05,5.25,4.17,10.47,6.26,15.71,2.47,6.06,4.93,12.17,7.47,18.21,3.58-6.85,7.01-13.78,10.28-20.78.34.86.71,1.71,1.03,2.57,2.47,6.06,4.93,12.18,7.48,18.22l1.31-2.52c6.97-13.79,13.57-28.01,19.86-42.12.87-2.04,1.78-4.07,2.64-6.11l-.3-.14Z"/>
  <path class="d" d="m57.3,50.9c-1.34,0-2.67-.26-3.9-.78-1.19-.5-2.27-1.23-3.19-2.13-.91-.9-1.63-1.97-2.13-3.15-.52-1.21-.78-2.51-.77-3.82-.02-1.54.22-3.08.71-4.54.44-1.32,1.13-2.55,2.03-3.6.87-1.01,1.95-1.82,3.16-2.37,1.29-.59,2.7-.88,4.12-.86,1.26-.02,2.51.23,3.68.71,1.07.44,2.05,1.08,2.89,1.89.8.79,1.44,1.72,1.88,2.75.44,1.03.67,2.13.67,3.25h-15.24c-.01,1.29.17,2.58.53,3.82.31,1.09.81,2.12,1.49,3.04.61.82,1.38,1.5,2.28,1.99.89.48,1.88.73,2.89.71.86,0,1.72-.15,2.54-.43.78-.27,1.53-.65,2.2-1.13.64-.44,1.21-.98,1.69-1.59.44-.55.77-1.18.97-1.86l1.18.52c-.3,1.06-.78,2.06-1.42,2.95-.64.91-1.41,1.72-2.28,2.41-.86.68-1.82,1.22-2.84,1.63-1,.4-2.07.61-3.14.62Zm4.03-14.3c0-.73-.13-1.46-.41-2.13-.26-.64-.64-1.23-1.12-1.73-.48-.49-1.05-.88-1.68-1.15-.65-.28-1.35-.42-2.06-.42-.61,0-1.21.14-1.76.41-.57.28-1.07.67-1.49,1.14-.46.51-.83,1.09-1.09,1.73-.29.68-.47,1.4-.51,2.13l10.12.02Z"/>
</svg>