<?xml version="1.0" encoding="utf-8"?>
<!-- Generator: Adobe Illustrator 27.9.0, SVG Export Plug-In . SVG Version: 6.00 Build 0)  -->
<svg version="1.1" id="a" xmlns="http://www.w3.org/2000/svg" xmlns:xlink="http://www.w3.org/1999/xlink" x="0px" y="0px"
	 viewBox="0 0 194.3 50.9" style="enable-background:new 0 0 194.3 50.9;" xml:space="preserve">
<style type="text/css">
	.st0{fill:#777777;}
	.st1{fill:url(#SVGID_1_);}
	.st2{fill:url(#SVGID_00000112602757876518810110000012780367555275744153_);}
</style>
<path class="st0" d="M83.9,19.5h2.4V27h9.3v-7.4H98v17.9h-2.4v-8.2h-9.3v8.2h-2.4C83.9,37.5,83.9,19.5,83.9,19.5z"/>
<path class="st0" d="M111.3,31.5c0-0.8,0.2-1.7,0.5-2.5c0.3-0.8,0.8-1.4,1.4-2s1.3-1,2-1.4c1.2-0.5,2.5-0.6,3.7-0.4s2.4,0.9,3.3,1.7
	c0.6,0.6,1,1.2,1.3,2c0.3,0.8,0.5,1.6,0.5,2.5c0,0.8-0.2,1.7-0.5,2.4s-0.8,1.5-1.4,2c-0.9,0.9-2.1,1.5-3.3,1.7s-2.5,0.1-3.7-0.4
	c-1.5-0.6-2.7-1.8-3.4-3.3C111.5,33.1,111.3,32.3,111.3,31.5L111.3,31.5z M113.8,31.5c0,0.6,0.1,1.1,0.3,1.7
	c0.2,0.5,0.4,0.9,0.8,1.3c0.3,0.4,0.8,0.7,1.2,0.9c0.5,0.2,1.1,0.3,1.6,0.3c0.6,0,1.1-0.1,1.6-0.3c0.5-0.2,0.9-0.5,1.2-0.9
	c0.3-0.4,0.6-0.8,0.8-1.3c0.4-1.1,0.4-2.3,0-3.4c-0.2-0.5-0.4-0.9-0.8-1.3c-0.3-0.4-0.8-0.7-1.2-0.9c-0.5-0.2-1.1-0.3-1.6-0.3
	c-0.6,0-1.1,0.1-1.6,0.3c-0.5,0.2-0.9,0.5-1.2,0.9c-0.3,0.4-0.6,0.8-0.8,1.3C113.8,30.3,113.7,30.9,113.8,31.5z"/>
<path class="st0" d="M143.3,27.4H140v6.4c0,0.3,0.1,0.6,0.2,0.9c0.1,0.2,0.3,0.5,0.5,0.6c0.3,0.2,0.6,0.3,1,0.2c0.3,0,0.6,0,0.8-0.1
	c0.3,0,0.5-0.1,0.8-0.3v2.1c-0.3,0.2-0.7,0.3-1.1,0.3c-0.3,0-0.7,0.1-1,0.1c-0.7,0-1.4-0.1-2-0.4c-0.4-0.2-0.8-0.5-1.1-1
	c-0.2-0.4-0.4-0.8-0.4-1.3c0-0.5-0.1-1-0.1-1.4v-6.2h-2.6v-2h2.6v-3.4h2.3v3.4h3.3L143.3,27.4L143.3,27.4z"/>
<path class="st0" d="M157.8,32.3c0,0.5,0.1,1,0.3,1.4c0.2,0.4,0.5,0.8,0.9,1.1c0.4,0.3,0.8,0.5,1.3,0.7c0.5,0.2,1,0.3,1.5,0.3
	c0.6,0,1.3-0.2,1.9-0.5c0.5-0.3,1-0.8,1.4-1.3l1.7,1.3c-0.6,0.8-1.4,1.5-2.4,1.9c-0.9,0.4-1.9,0.6-3,0.6c-0.9,0-1.8-0.2-2.6-0.5
	c-0.7-0.3-1.4-0.8-1.9-1.3c-0.5-0.6-1-1.3-1.2-2c-0.3-0.8-0.4-1.6-0.4-2.5s0.1-1.7,0.5-2.5c0.3-0.7,0.7-1.4,1.3-2
	c0.6-0.6,1.2-1,2-1.3c0.8-0.3,1.6-0.5,2.5-0.5c0.9,0,1.9,0.2,2.7,0.6c0.7,0.3,1.3,0.8,1.8,1.4c0.5,0.6,0.8,1.3,1,2
	c0.2,0.7,0.3,1.5,0.3,2.3v0.8L157.8,32.3L157.8,32.3z M165,30.5c0-0.5-0.1-1-0.2-1.4c-0.1-0.4-0.4-0.8-0.6-1.1
	c-0.3-0.3-0.7-0.6-1.1-0.7c-0.5-0.2-1-0.3-1.5-0.3c-0.5,0-1.1,0.1-1.5,0.3c-0.4,0.2-0.8,0.5-1.2,0.8c-0.3,0.3-0.5,0.7-0.7,1.1
	c-0.2,0.4-0.3,0.8-0.3,1.2L165,30.5L165,30.5z"/>
<path class="st0" d="M180.3,18.3h2.3v19.1h-2.3V18.3z"/>
<path class="st0" d="M194.3,22.8c0,0.4-0.1,0.8-0.3,1.2s-0.6,0.6-0.9,0.8s-0.8,0.2-1.2,0.1s-0.8-0.3-1.1-0.6
	c-0.3-0.3-0.5-0.7-0.6-1.1c-0.1-0.4-0.1-0.9,0.1-1.2s0.4-0.7,0.8-1c0.4-0.2,0.8-0.4,1.2-0.4c0.3,0,0.6,0,0.8,0.1
	c0.3,0.1,0.5,0.2,0.7,0.5c0.2,0.2,0.4,0.4,0.5,0.7C194.2,22.3,194.2,22.6,194.3,22.8L194.3,22.8z M190.5,22.8c0,0.2,0,0.4,0.1,0.6
	c0.1,0.2,0.2,0.4,0.4,0.5c0.1,0.2,0.3,0.3,0.5,0.4c0.2,0.1,0.4,0.1,0.6,0.1c0.2,0,0.4,0,0.6-0.1s0.4-0.2,0.5-0.4s0.3-0.3,0.3-0.5
	s0.1-0.4,0.1-0.6c0-0.4-0.2-0.8-0.5-1.1c-0.3-0.3-0.7-0.5-1.1-0.5s-0.8,0.2-1.1,0.5S190.5,22.4,190.5,22.8
	C190.5,22.8,190.5,22.8,190.5,22.8z M191.8,23.9h-0.5v-2.1c0.3,0,0.5-0.1,0.8-0.1c0.2,0,0.5,0,0.7,0.1c0.1,0.1,0.1,0.1,0.1,0.2
	c0,0.1,0.1,0.2,0.1,0.2c0,0.1-0.1,0.2-0.1,0.3s-0.2,0.1-0.3,0.2c0.1,0,0.2,0.1,0.3,0.2c0.1,0.1,0.1,0.2,0.1,0.3
	c0,0.2,0.1,0.4,0.1,0.5h-0.5c-0.1-0.2-0.1-0.3-0.2-0.5c0-0.2-0.2-0.3-0.4-0.3h-0.2L191.8,23.9L191.8,23.9z M191.8,22.7h0.2
	c0.3,0,0.5-0.1,0.5-0.3s-0.1-0.3-0.4-0.3c-0.1,0-0.2,0-0.3,0L191.8,22.7L191.8,22.7z"/>
<path class="st0" d="M83.9,44.7h1.7c0.2,0,0.5,0,0.7,0.1c0.2,0,0.4,0.1,0.6,0.2s0.3,0.3,0.5,0.5c0.1,0.3,0.2,0.5,0.2,0.8
	c0,0.3-0.1,0.6-0.3,0.8c-0.2,0.2-0.5,0.4-0.8,0.5c0.2,0,0.4,0.1,0.6,0.1c0.2,0.1,0.3,0.2,0.4,0.3s0.2,0.3,0.3,0.5
	c0.1,0.2,0.1,0.4,0.1,0.6c0,0.3-0.1,0.6-0.2,0.8c-0.1,0.2-0.3,0.4-0.5,0.5c-0.2,0.1-0.4,0.2-0.7,0.3c-0.2,0-0.4,0.1-0.7,0.1h-1.9
	L83.9,44.7L83.9,44.7z M84.4,47.3h1.2c0.2,0,0.5,0,0.7-0.1c0.2-0.1,0.3-0.1,0.4-0.3c0.1-0.1,0.2-0.2,0.2-0.3c0-0.1,0.1-0.2,0.1-0.3
	c0-0.2,0-0.4-0.1-0.5c-0.1-0.1-0.2-0.2-0.3-0.3c-0.1-0.1-0.3-0.2-0.4-0.2c-0.2,0-0.3,0-0.5,0h-1.2L84.4,47.3L84.4,47.3z M84.4,50.2
	h1.3c0.3,0,0.5,0,0.8-0.1c0.2-0.1,0.3-0.2,0.5-0.3c0.1-0.1,0.2-0.2,0.2-0.4c0-0.1,0.1-0.2,0.1-0.4c0-0.2,0-0.4-0.1-0.6
	c-0.1-0.2-0.2-0.3-0.3-0.4c-0.1-0.1-0.3-0.2-0.5-0.2c-0.2,0-0.3-0.1-0.5-0.1h-1.4L84.4,50.2L84.4,50.2z"/>
<path class="st0" d="M93.2,49.7v1.1h-0.5v-0.4c0-0.1,0-0.2,0-0.3c-0.1,0.2-0.3,0.4-0.5,0.5c-0.2,0.2-0.5,0.2-0.8,0.2
	c-0.2,0-0.5,0-0.7-0.2c-0.2-0.1-0.3-0.2-0.5-0.4C90,50.2,90,50,89.9,49.8c0-0.2-0.1-0.4-0.1-0.6v-2.3h0.5v2.3c0,0.2,0,0.3,0,0.5
	c0,0.1,0.1,0.3,0.2,0.4c0.1,0.1,0.2,0.2,0.3,0.3c0.2,0.1,0.3,0.1,0.5,0.1c0.2,0,0.4,0,0.5-0.1c0.2-0.1,0.3-0.2,0.4-0.3
	c0.1-0.2,0.2-0.3,0.3-0.5c0.1-0.2,0.1-0.5,0.1-0.7v-2h0.5L93.2,49.7L93.2,49.7z"/>
<path class="st0" d="M95.3,49.8c0.1,0.2,0.3,0.4,0.5,0.5c0.2,0.1,0.4,0.2,0.7,0.2c0.1,0,0.2,0,0.3,0c0.1,0,0.2-0.1,0.3-0.1
	c0.1-0.1,0.2-0.1,0.2-0.2c0.1-0.1,0.1-0.2,0.1-0.3c0-0.1,0-0.2,0-0.2c0-0.1-0.1-0.1-0.1-0.2c-0.1-0.1-0.3-0.2-0.4-0.2
	c-0.2,0-0.4-0.1-0.6-0.1c-0.2,0-0.4-0.1-0.6-0.2c-0.2-0.1-0.3-0.2-0.4-0.3c-0.1-0.2-0.2-0.4-0.2-0.6c0-0.2,0-0.3,0.1-0.5
	c0.1-0.1,0.2-0.3,0.3-0.3s0.3-0.2,0.4-0.2s0.3-0.1,0.5-0.1c0.3,0,0.6,0,0.8,0.2c0.2,0.1,0.4,0.3,0.6,0.6l-0.5,0.3
	c-0.1-0.2-0.2-0.3-0.4-0.4c-0.1-0.1-0.3-0.1-0.4-0.1s-0.3,0-0.4,0c-0.1,0-0.2,0.1-0.3,0.1s-0.2,0.1-0.2,0.2
	c-0.1,0.1-0.1,0.2-0.1,0.3c0,0.1,0,0.2,0,0.2c0,0.1,0.1,0.1,0.1,0.2c0.1,0.1,0.3,0.2,0.4,0.2c0.2,0,0.4,0.1,0.6,0.1
	c0.2,0,0.4,0.1,0.6,0.2c0.2,0.1,0.3,0.2,0.4,0.3c0.1,0.2,0.2,0.4,0.2,0.6c0,0.2,0,0.4-0.1,0.5c-0.1,0.2-0.2,0.3-0.3,0.4
	c-0.1,0.1-0.3,0.2-0.5,0.2s-0.3,0.1-0.5,0.1c-0.3,0-0.6-0.1-0.9-0.2c-0.3-0.1-0.5-0.3-0.7-0.6L95.3,49.8L95.3,49.8z"/>
<path class="st0" d="M99.7,45.3c0-0.1,0-0.2,0.1-0.3c0.1-0.1,0.2-0.1,0.3-0.1c0.1,0,0.1,0,0.2,0s0.1,0,0.1,0.1c0,0,0.1,0.1,0.1,0.1
	c0,0,0,0.1,0,0.2c0,0.1,0,0.2-0.1,0.3s-0.2,0.1-0.3,0.1c-0.1,0-0.1,0-0.2,0s-0.1,0-0.1-0.1s-0.1-0.1-0.1-0.1
	C99.7,45.4,99.7,45.3,99.7,45.3z M99.8,46.8h0.5v3.9h-0.5C99.8,50.8,99.8,46.8,99.8,46.8z"/>
<path class="st0" d="M102.5,47.9v-1.1h0.5v0.7c0.1-0.2,0.3-0.4,0.5-0.5c0.2-0.2,0.5-0.2,0.8-0.2c0.2,0,0.5,0,0.7,0.1
	c0.2,0.1,0.3,0.2,0.4,0.4c0.1,0.2,0.2,0.3,0.2,0.5c0,0.2,0.1,0.4,0.1,0.6v2.3h-0.5v-2.3c0-0.2,0-0.3,0-0.5c0-0.1-0.1-0.3-0.1-0.4
	c-0.1-0.1-0.2-0.2-0.3-0.3c-0.2-0.1-0.3-0.1-0.5-0.1c-0.2,0-0.4,0-0.5,0.1c-0.2,0.1-0.3,0.2-0.4,0.3c-0.1,0.2-0.2,0.3-0.3,0.5
	c-0.1,0.2-0.1,0.5-0.1,0.7v2h-0.5C102.5,50.7,102.5,47.9,102.5,47.9z"/>
<path class="st0" d="M111.5,50c-0.2,0.3-0.4,0.5-0.7,0.7c-0.3,0.1-0.6,0.2-1,0.2c-0.3,0-0.6,0-0.8-0.2c-0.2-0.1-0.5-0.2-0.6-0.4
	s-0.3-0.4-0.4-0.7c-0.1-0.3-0.1-0.5-0.1-0.8c0-0.3,0-0.6,0.1-0.8c0.1-0.2,0.2-0.5,0.4-0.7c0.2-0.2,0.4-0.3,0.6-0.4
	c0.2-0.1,0.5-0.2,0.8-0.2c0.3,0,0.5,0,0.8,0.2c0.2,0.1,0.4,0.2,0.6,0.4c0.2,0.2,0.3,0.4,0.3,0.6c0.1,0.2,0.1,0.4,0.1,0.7v0.4h-3.3
	c0,0.1,0,0.3,0.1,0.4c0.1,0.2,0.1,0.3,0.2,0.5c0.1,0.2,0.3,0.3,0.4,0.4c0.2,0.1,0.5,0.2,0.7,0.2c0.3,0,0.5-0.1,0.8-0.2
	c0.2-0.1,0.4-0.3,0.6-0.5L111.5,50L111.5,50z M111.1,48.5c0-0.2,0-0.3-0.1-0.5c-0.1-0.2-0.2-0.3-0.3-0.4c-0.1-0.1-0.3-0.2-0.4-0.3
	c-0.2-0.1-0.3-0.1-0.5-0.1c-0.2,0-0.5,0-0.7,0.2c-0.2,0.1-0.3,0.2-0.4,0.4c-0.1,0.1-0.2,0.3-0.2,0.4c0,0.1-0.1,0.2-0.1,0.3
	L111.1,48.5L111.1,48.5z"/>
<path class="st0" d="M113.5,49.8c0.1,0.2,0.3,0.4,0.5,0.5c0.2,0.1,0.4,0.2,0.7,0.2c0.1,0,0.2,0,0.3,0c0.1,0,0.2-0.1,0.3-0.1
	c0.1-0.1,0.2-0.1,0.2-0.2s0.1-0.2,0.1-0.3c0-0.1,0-0.2,0-0.2s-0.1-0.1-0.1-0.2c-0.1-0.1-0.3-0.2-0.4-0.2c-0.2,0-0.4-0.1-0.6-0.1
	c-0.2,0-0.4-0.1-0.6-0.2c-0.2-0.1-0.3-0.2-0.4-0.3c-0.1-0.2-0.2-0.4-0.2-0.6c0-0.2,0-0.3,0.1-0.5c0.1-0.1,0.2-0.3,0.3-0.3
	s0.3-0.2,0.4-0.2s0.3-0.1,0.5-0.1c0.3,0,0.6,0,0.8,0.2c0.2,0.1,0.4,0.3,0.6,0.6l-0.5,0.3c-0.1-0.2-0.2-0.3-0.4-0.4
	c-0.2-0.1-0.4-0.2-0.6-0.1c-0.1,0-0.2,0-0.3,0c-0.1,0-0.2,0.1-0.3,0.1c-0.1,0-0.2,0.1-0.2,0.2c-0.1,0.1-0.1,0.2-0.1,0.3
	c0,0.1,0,0.2,0,0.2c0,0.1,0.1,0.1,0.1,0.2c0.1,0.1,0.3,0.2,0.4,0.2c0.2,0,0.4,0.1,0.6,0.1c0.2,0,0.4,0.1,0.6,0.2
	c0.2,0.1,0.3,0.2,0.4,0.3c0.1,0.2,0.2,0.4,0.2,0.6c0,0.2,0,0.4-0.1,0.5c-0.1,0.2-0.2,0.3-0.3,0.4c-0.1,0.1-0.3,0.2-0.4,0.2
	c-0.2,0-0.3,0.1-0.5,0.1c-0.3,0-0.6-0.1-0.9-0.2c-0.3-0.1-0.5-0.3-0.7-0.6L113.5,49.8L113.5,49.8z"/>
<path class="st0" d="M117.9,49.8c0.1,0.2,0.3,0.4,0.5,0.5c0.2,0.1,0.4,0.2,0.7,0.2c0.1,0,0.2,0,0.3,0s0.2-0.1,0.3-0.1
	c0.1-0.1,0.2-0.1,0.2-0.2s0.1-0.2,0.1-0.3c0-0.1,0-0.2,0-0.2c0-0.1-0.1-0.1-0.1-0.2c-0.1-0.1-0.3-0.2-0.4-0.2
	c-0.2,0-0.4-0.1-0.6-0.1c-0.2,0-0.4-0.1-0.6-0.2c-0.2-0.1-0.3-0.2-0.4-0.3c-0.1-0.2-0.2-0.4-0.2-0.6c0-0.2,0-0.3,0.1-0.5
	c0.1-0.1,0.2-0.3,0.3-0.3c0.1-0.1,0.3-0.2,0.4-0.2c0.2,0,0.3-0.1,0.5-0.1c0.3,0,0.6,0,0.8,0.2c0.2,0.1,0.4,0.3,0.6,0.6l-0.5,0.3
	c-0.1-0.2-0.2-0.3-0.4-0.4c-0.1-0.1-0.3-0.1-0.4-0.1c-0.1,0-0.3,0-0.4,0c-0.1,0-0.2,0.1-0.3,0.1c-0.1,0-0.2,0.1-0.2,0.2
	c-0.1,0.1-0.1,0.2-0.1,0.3c0,0.1,0,0.2,0,0.2c0,0.1,0.1,0.1,0.1,0.2c0.1,0.1,0.3,0.2,0.4,0.2c0.2,0,0.4,0.1,0.6,0.1
	c0.2,0,0.4,0.1,0.6,0.2c0.2,0.1,0.3,0.2,0.4,0.3c0.1,0.2,0.2,0.4,0.2,0.6c0,0.2,0,0.4-0.1,0.5c-0.1,0.2-0.2,0.3-0.3,0.4
	c-0.1,0.1-0.3,0.2-0.5,0.2s-0.3,0.1-0.5,0.1c-0.3,0-0.6-0.1-0.9-0.2c-0.3-0.1-0.5-0.3-0.7-0.6L117.9,49.8L117.9,49.8z"/>
<path class="st0" d="M128.7,49l0.9-1.6h0.6l-1.1,1.9l1.4,1.4h-0.8l-0.9-1c-0.2,0.3-0.5,0.6-0.8,0.8c-0.3,0.2-0.7,0.3-1.1,0.3
	c-0.2,0-0.5,0-0.7-0.1c-0.2-0.1-0.4-0.2-0.6-0.4s-0.3-0.3-0.4-0.5c-0.1-0.2-0.1-0.5-0.1-0.7c0-0.2,0-0.4,0.1-0.6
	c0.1-0.2,0.2-0.3,0.3-0.5s0.3-0.3,0.4-0.4s0.3-0.2,0.5-0.3l-0.3-0.3c-0.1-0.1-0.2-0.2-0.2-0.3c-0.1-0.1-0.1-0.2-0.2-0.4
	c-0.1-0.1-0.1-0.3-0.1-0.4c0-0.2,0-0.4,0.1-0.6c0.1-0.2,0.2-0.3,0.3-0.4s0.3-0.2,0.5-0.3c0.2-0.1,0.4-0.1,0.6-0.1
	c0.2,0,0.3,0,0.5,0.1s0.3,0.2,0.4,0.3c0.1,0.1,0.2,0.2,0.3,0.4c0.1,0.2,0.1,0.3,0.1,0.5c0,0.2,0,0.4-0.1,0.6
	c-0.1,0.2-0.2,0.3-0.3,0.4s-0.3,0.2-0.4,0.3c-0.2,0.1-0.3,0.2-0.5,0.3L128.7,49L128.7,49z M126.8,47.7c-0.1,0.1-0.3,0.2-0.4,0.3
	c-0.1,0.1-0.2,0.2-0.4,0.3s-0.2,0.2-0.3,0.4c-0.1,0.2-0.1,0.3-0.1,0.5c0,0.2,0,0.4,0.1,0.5c0.1,0.2,0.2,0.3,0.3,0.4
	c0.1,0.1,0.3,0.2,0.4,0.3c0.2,0.1,0.3,0.1,0.5,0.1c0.2,0,0.3,0,0.4-0.1c0.1,0,0.3-0.1,0.4-0.2c0.1-0.1,0.2-0.2,0.3-0.3
	s0.2-0.2,0.3-0.3L126.8,47.7L126.8,47.7z M127.2,45.1c-0.2,0-0.5,0.1-0.7,0.2c-0.1,0.1-0.2,0.2-0.2,0.3c0,0.1-0.1,0.2-0.1,0.3
	c0,0.1,0,0.2,0.1,0.3c0,0.1,0.1,0.2,0.2,0.3c0.1,0.1,0.1,0.2,0.2,0.3l0.2,0.2l0.4-0.2c0.1-0.1,0.2-0.2,0.4-0.3
	c0.1-0.1,0.2-0.2,0.3-0.3s0.1-0.3,0.1-0.4c0-0.1,0-0.2-0.1-0.3s-0.1-0.2-0.2-0.3C127.6,45.1,127.4,45.1,127.2,45.1L127.2,45.1z"/>
<path class="st0" d="M135.1,44.7h1.7c0.2,0,0.4,0,0.7,0.1c0.2,0,0.4,0.1,0.6,0.2s0.4,0.3,0.5,0.5c0.1,0.2,0.2,0.5,0.2,0.7
	s-0.1,0.5-0.2,0.7c-0.1,0.2-0.2,0.4-0.4,0.5c-0.2,0.1-0.4,0.2-0.6,0.3c-0.2,0.1-0.5,0.1-0.7,0.1h-1.3v2.8h-0.6L135.1,44.7
	L135.1,44.7z M135.7,47.4h1.3c0.2,0,0.3,0,0.5-0.1c0.1,0,0.3-0.1,0.4-0.2c0.1-0.1,0.2-0.2,0.3-0.3c0.1-0.2,0.1-0.3,0.1-0.5
	c0-0.2,0-0.3-0.1-0.5c-0.1-0.1-0.2-0.2-0.3-0.3c-0.1-0.1-0.3-0.2-0.4-0.2c-0.2,0-0.3-0.1-0.5-0.1h-1.2V47.4L135.7,47.4z"/>
<path class="st0" d="M140.7,44.3h0.5v6.4h-0.5V44.3z"/>
<path class="st0" d="M146.8,50c-0.2,0.3-0.4,0.5-0.7,0.7c-0.3,0.1-0.6,0.2-1,0.2c-0.3,0-0.6,0-0.8-0.2c-0.2-0.1-0.4-0.2-0.6-0.4
	c-0.2-0.2-0.3-0.4-0.4-0.7c-0.1-0.3-0.1-0.5-0.1-0.8c0-0.3,0.1-0.6,0.1-0.8c0.1-0.2,0.2-0.5,0.4-0.7c0.2-0.2,0.4-0.3,0.6-0.4
	c0.5-0.2,1.1-0.2,1.6,0c0.2,0.1,0.4,0.2,0.6,0.4c0.1,0.2,0.3,0.4,0.4,0.6c0.1,0.2,0.1,0.4,0.1,0.7v0.4h-3.3c0,0.1,0,0.3,0.1,0.4
	c0.1,0.2,0.1,0.3,0.2,0.5c0.1,0.2,0.3,0.3,0.5,0.4c0.2,0.1,0.5,0.2,0.7,0.2c0.3,0,0.5-0.1,0.8-0.2c0.2-0.1,0.4-0.3,0.6-0.5L146.8,50
	L146.8,50z M146.4,48.5c0-0.2,0-0.3-0.1-0.5c-0.1-0.2-0.2-0.3-0.3-0.4c-0.1-0.1-0.3-0.2-0.4-0.3c-0.2-0.1-0.4-0.1-0.5-0.1
	c-0.2,0-0.5,0-0.7,0.2c-0.3,0.2-0.6,0.5-0.7,0.8c0,0.1-0.1,0.2-0.1,0.3L146.4,48.5L146.4,48.5z"/>
<path class="st0" d="M151.9,49.1v1.3c0,0.1,0,0.2,0,0.3h-0.5c0-0.2-0.1-0.4-0.1-0.6c-0.1,0.2-0.3,0.4-0.6,0.6
	c-0.3,0.1-0.5,0.2-0.8,0.2c-0.2,0-0.3,0-0.5-0.1s-0.3-0.1-0.4-0.2s-0.2-0.2-0.3-0.4c-0.1-0.2-0.1-0.3-0.1-0.5c0-0.3,0.1-0.5,0.2-0.7
	c0.1-0.2,0.4-0.3,0.6-0.4c0.2-0.1,0.5-0.1,0.7-0.2h1.3v-0.3c0-0.1,0-0.3-0.1-0.4c-0.1-0.1-0.1-0.2-0.2-0.3c-0.2-0.2-0.5-0.2-0.8-0.2
	c-0.4,0-0.9,0.2-1.2,0.5l-0.3-0.3c0.2-0.2,0.4-0.3,0.7-0.4c0.3-0.1,0.5-0.1,0.8-0.1c0.4,0,0.8,0.1,1.1,0.3c0.1,0.1,0.3,0.3,0.3,0.5
	c0.1,0.2,0.1,0.4,0.1,0.6L151.9,49.1L151.9,49.1z M150.9,48.8c-0.2,0-0.4,0-0.6,0c-0.2,0-0.4,0.1-0.6,0.1c-0.1,0.1-0.3,0.2-0.4,0.3
	s-0.1,0.3-0.1,0.4c0,0.1,0,0.2,0.1,0.3c0.1,0.1,0.1,0.2,0.2,0.2c0.1,0.1,0.2,0.1,0.3,0.1c0.1,0,0.2,0,0.3,0c0.2,0,0.5,0,0.7-0.1
	c0.2-0.1,0.3-0.2,0.4-0.3c0.1-0.1,0.2-0.3,0.2-0.4c0-0.2,0.1-0.3,0.1-0.5v-0.3L150.9,48.8L150.9,48.8z"/>
<path class="st0" d="M154.1,49.8c0.1,0.2,0.3,0.4,0.5,0.5c0.2,0.1,0.4,0.2,0.7,0.2c0.1,0,0.2,0,0.3,0s0.2-0.1,0.3-0.1
	c0.1-0.1,0.1-0.1,0.2-0.2c0.1-0.1,0.1-0.2,0.1-0.3c0-0.1,0-0.2,0-0.2c0-0.1-0.1-0.1-0.1-0.2c-0.1-0.1-0.3-0.2-0.4-0.2
	c-0.2,0-0.4-0.1-0.6-0.1c-0.2,0-0.4-0.1-0.6-0.2c-0.2-0.1-0.3-0.2-0.4-0.3c-0.1-0.2-0.2-0.4-0.2-0.6c0-0.2,0-0.3,0.1-0.5
	c0.1-0.1,0.2-0.3,0.3-0.3s0.3-0.2,0.4-0.2c0.2,0,0.3-0.1,0.5-0.1c0.3,0,0.6,0,0.8,0.2c0.2,0.1,0.4,0.3,0.6,0.6l-0.5,0.3
	c-0.1-0.2-0.2-0.3-0.4-0.4c-0.2-0.1-0.4-0.2-0.6-0.1c-0.1,0-0.2,0-0.3,0c-0.1,0-0.2,0.1-0.3,0.1s-0.1,0.1-0.2,0.2s-0.1,0.2-0.1,0.3
	c0,0.1,0,0.2,0,0.2c0,0.1,0.1,0.1,0.1,0.2c0.1,0.1,0.3,0.2,0.4,0.2c0.2,0,0.4,0.1,0.6,0.1s0.4,0.1,0.6,0.2c0.2,0.1,0.3,0.2,0.4,0.3
	c0.1,0.2,0.2,0.4,0.2,0.6c0,0.2,0,0.4-0.1,0.5c-0.1,0.2-0.2,0.3-0.3,0.4c-0.1,0.1-0.3,0.2-0.5,0.2c-0.2,0-0.4,0.1-0.5,0.1
	c-0.3,0-0.6-0.1-0.9-0.2c-0.3-0.1-0.5-0.3-0.6-0.6L154.1,49.8L154.1,49.8z"/>
<path class="st0" d="M161.8,49.7v1.1h-0.5v-0.4c0-0.1,0-0.2,0-0.3c-0.1,0.2-0.3,0.4-0.5,0.5c-0.2,0.2-0.5,0.2-0.8,0.2
	c-0.3,0-0.5,0-0.8-0.2c-0.2-0.1-0.3-0.2-0.5-0.4c-0.1-0.2-0.2-0.3-0.2-0.5c0-0.2-0.1-0.4-0.1-0.6v-2.3h0.5v2.3c0,0.2,0,0.3,0,0.5
	c0,0.1,0.1,0.3,0.1,0.4c0.1,0.1,0.2,0.2,0.3,0.3c0.1,0.1,0.3,0.1,0.5,0.1c0.2,0,0.4,0,0.5-0.1c0.2-0.1,0.3-0.2,0.4-0.3
	c0.1-0.2,0.2-0.3,0.3-0.5c0.1-0.2,0.1-0.5,0.1-0.7v-2h0.5L161.8,49.7L161.8,49.7z"/>
<path class="st0" d="M163.9,47.9v-1.1h0.5v0.4c0,0.1,0,0.2,0,0.3c0.1-0.2,0.3-0.4,0.5-0.6c0.2-0.1,0.5-0.2,0.7-0.2h0.3l-0.1,0.5
	c-0.1,0-0.1,0-0.2,0c-0.2,0-0.4,0-0.6,0.1c-0.2,0.1-0.3,0.2-0.4,0.3s-0.2,0.3-0.2,0.4c-0.1,0.2-0.1,0.4-0.1,0.5v2.1h-0.5L163.9,47.9
	L163.9,47.9z"/>
<path class="st0" d="M170.8,50c-0.2,0.3-0.4,0.5-0.7,0.7c-0.3,0.1-0.6,0.2-1,0.2c-0.3,0-0.6,0-0.8-0.2c-0.2-0.1-0.4-0.2-0.6-0.4
	c-0.2-0.2-0.3-0.4-0.4-0.7c-0.1-0.3-0.1-0.5-0.1-0.8c0-0.3,0.1-0.6,0.1-0.8c0.1-0.2,0.2-0.5,0.4-0.7c0.2-0.2,0.4-0.3,0.6-0.4
	c0.5-0.2,1.1-0.2,1.6,0c0.2,0.1,0.4,0.2,0.6,0.4s0.3,0.4,0.4,0.6c0.1,0.2,0.1,0.4,0.1,0.7v0.4h-3.3c0,0.1,0,0.3,0.1,0.4
	c0.1,0.2,0.1,0.3,0.2,0.5c0.1,0.2,0.3,0.3,0.5,0.4c0.2,0.1,0.5,0.2,0.7,0.2c0.3,0,0.5-0.1,0.8-0.2c0.2-0.1,0.4-0.3,0.6-0.5L170.8,50
	L170.8,50z M170.4,48.5c0-0.2,0-0.3-0.1-0.5c-0.1-0.2-0.2-0.3-0.3-0.4c-0.1-0.1-0.3-0.2-0.4-0.3c-0.2-0.1-0.4-0.1-0.6-0.1
	c-0.2,0-0.4,0.1-0.6,0.2c-0.2,0.1-0.3,0.2-0.4,0.4c-0.1,0.1-0.2,0.3-0.2,0.4c0,0.1-0.1,0.2-0.1,0.3L170.4,48.5L170.4,48.5z"/>
<linearGradient id="SVGID_1_" gradientUnits="userSpaceOnUse" x1="-282.1564" y1="39.6034" x2="-230.5764" y2="-11.9866" gradientTransform="matrix(1 0 0 1 287 5.7602)">
	<stop  offset="0" style="stop-color:#EAD563"/>
	<stop  offset="1" style="stop-color:#CDA349"/>
</linearGradient>
<path class="st1" d="M56,0c-1.1,1.9-2.1,3.9-3.2,5.8c-6.3,11.6-12.5,23.6-18.4,35.4l-1.7,3.5c-2.6-5.5-5.2-10.9-7.9-16.4
	c2.8-6.1,5.6-12.2,8.2-18.4l-0.3-0.1c-3.1,5.3-6.1,10.7-9.1,16.1c-1.5-3-3-6.1-4.5-9.1L18.8,17c1.3,3.5,2.7,6.9,4.1,10.3
	c-0.2,0.4-0.4,0.7-0.6,1c-2.9,5.4-5.7,10.9-8.4,16.4c-4.4-9.3-9-18.7-13.6-27.9L0,17c2,5.2,4.2,10.5,6.3,15.7
	c2.5,6.1,4.9,12.2,7.5,18.2c3.6-6.8,7-13.8,10.3-20.8c0.3,0.9,0.7,1.7,1,2.6c2.5,6.1,4.9,12.2,7.5,18.2l1.3-2.5
	c7-13.8,13.6-28,19.9-42.1c0.9-2,1.8-4.1,2.6-6.1L56,0L56,0z"/>
<linearGradient id="SVGID_00000158731785198806640150000016200972128423437964_" gradientUnits="userSpaceOnUse" x1="-258.524" y1="63.2458" x2="-206.9341" y2="11.6558" gradientTransform="matrix(1 0 0 1 287 5.7602)">
	<stop  offset="0" style="stop-color:#EAD563"/>
	<stop  offset="1" style="stop-color:#CDA349"/>
</linearGradient>
<path style="fill:url(#SVGID_00000158731785198806640150000016200972128423437964_);" d="M57.3,50.9c-1.3,0-2.7-0.3-3.9-0.8
	c-1.2-0.5-2.3-1.2-3.2-2.1c-0.9-0.9-1.6-2-2.1-3.2c-0.5-1.2-0.8-2.5-0.8-3.8c0-1.5,0.2-3.1,0.7-4.5c0.4-1.3,1.1-2.5,2-3.6
	c0.9-1,2-1.8,3.2-2.4c1.3-0.6,2.7-0.9,4.1-0.9c1.3,0,2.5,0.2,3.7,0.7c1.1,0.4,2,1.1,2.9,1.9c0.8,0.8,1.4,1.7,1.9,2.8
	c0.4,1,0.7,2.1,0.7,3.2H51.2c0,1.3,0.2,2.6,0.5,3.8c0.3,1.1,0.8,2.1,1.5,3c0.6,0.8,1.4,1.5,2.3,2c0.9,0.5,1.9,0.7,2.9,0.7
	c0.9,0,1.7-0.2,2.5-0.4c0.8-0.3,1.5-0.7,2.2-1.1c0.6-0.4,1.2-1,1.7-1.6c0.4-0.5,0.8-1.2,1-1.9l1.2,0.5c-0.3,1.1-0.8,2.1-1.4,3
	c-0.6,0.9-1.4,1.7-2.3,2.4c-0.9,0.7-1.8,1.2-2.8,1.6C59.4,50.7,58.4,50.9,57.3,50.9L57.3,50.9z M61.3,36.6c0-0.7-0.1-1.5-0.4-2.1
	c-0.3-0.6-0.6-1.2-1.1-1.7c-0.5-0.5-1-0.9-1.7-1.1c-0.7-0.3-1.3-0.4-2.1-0.4c-0.6,0-1.2,0.1-1.8,0.4c-0.6,0.3-1.1,0.7-1.5,1.1
	c-0.5,0.5-0.8,1.1-1.1,1.7c-0.3,0.7-0.5,1.4-0.5,2.1L61.3,36.6z"/>
</svg>
