<svg width="22" height="20" viewBox="0 0 22 20" fill="none" xmlns="http://www.w3.org/2000/svg">
<path d="M0 13.6842C1.837 12.8947 3.663 12.1053 5.5 11.7579V3.15789C5.5 2.32037 5.84768 1.51715 6.46655 0.924926C7.08542 0.332706 7.92479 0 8.8 0C10.241 0 11.462 0.873684 11.913 2.10526H8.8C8.50826 2.10526 8.22847 2.21617 8.02218 2.41357C7.81589 2.61098 7.7 2.87872 7.7 3.15789V4.21053H13.2V3.15789C13.2 2.32037 13.5477 1.51715 14.1665 0.924926C14.7854 0.332706 15.6248 0 16.5 0C17.941 0 19.162 0.873684 19.613 2.10526H16.5C16.2083 2.10526 15.9285 2.21617 15.7222 2.41357C15.5159 2.61098 15.4 2.87872 15.4 3.15789V13.6211C17.6 13.2842 19.8 11.5789 22 11.5789V13.6842C19.558 13.6842 17.116 15.7895 14.663 15.7895C12.221 15.7895 9.779 13.6842 7.337 13.6842C4.884 13.6842 2.442 14.7368 0 15.7895V13.6842ZM13.2 6.31579H7.7V8.42105H13.2V6.31579ZM13.2 10.5263H7.7V11.5789C9.537 11.7474 11.363 12.9579 13.2 13.4632V10.5263ZM0 17.8947C2.442 16.8421 4.884 15.7895 7.337 15.7895C9.779 15.7895 12.221 17.8947 14.663 17.8947C17.116 17.8947 19.558 15.7895 22 15.7895V17.8947C19.558 17.8947 17.116 20 14.663 20C12.221 20 9.779 17.8947 7.337 17.8947C4.884 17.8947 2.442 18.9474 0 20V17.8947Z" fill="black"/>
</svg>
